<?xml version="1.0" standalone="no"?>
<!DOCTYPE svg PUBLIC "-//W3C//DTD SVG 1.1//EN" "http://www.w3.org/Graphics/SVG/1.1/DTD/svg11.dtd" >
<!--
2013-9-30: Created.
-->
<svg>
<metadata>
Created by iconfont
</metadata>
<defs>

<font id="iconfont" horiz-adv-x="1024" >
  <font-face
    font-family="iconfont"
    font-weight="500"
    font-stretch="normal"
    units-per-em="1024"
    ascent="896"
    descent="-128"
  />
    <missing-glyph />
    
    <glyph glyph-name="tushu" unicode="&#58880;" d="M920.47058844 279.52941187l-651.29411719 0q-10.35294094 0-21.64705875-5.64705843t-21.17647031-16.94117625-16.00000032-26.82352969-6.11764687-35.29411781 5.17647094-36.70588219 13.64705906-30.11764687 20.70588281-20.70588282 26.35294125-7.52941218l650.35294125 0q-11.29411781 11.29411781-19.76470594 25.41176437-7.52941219 12.23529375-13.64705906 29.17647094t-6.11764687 38.588235q0 24.47058844 6.11764687 40.47058781t13.64705906 26.35294125q8.47058813 11.29411781 19.76470594 19.76470594zM920.47058844 22.588235629999986q0-16.00000031-20.70588281-16.00000032l-688.00000032 0q-31.99999969 0-53.64705843 13.17647063t-35.29411782 36.23529375-19.2941175 55.05882375-5.64705843 68.70588281l0 545.88235313q0 72.47058844 38.588235 104.94117656t110.1176475 32.47058812l31.99999968 0 64.00000032 0 87.52941187 0q48 0 98.35294125 0.47058844t98.35294125 0.47058844l88.47058781 0 65.88235313 0 32.94117656 0q26.35294125 0 46.11764719-10.82352938t32.94117656-30.11764687 20.23529438-45.64705875 7.05882375-56.47058813l0-381.17647031q-179.76470625 0-323.76470625 0.94117688l-120.47058844 0q-60.23529375 0-107.76470625 0.47058843t-78.58823531 0.47058844l-34.82352938 0q-19.76470594 0-38.588235-11.76470625t-33.8823525-31.99999969-24.47058844-47.05882312-9.411765-55.99999969q0-35.76470625 9.8823525-64.47058781t25.88235282-48.47058844 35.29411781-30.58823531 38.1176475-10.82352938l642.82352906 0q7.52941219 0 13.64705906-4.23529406t6.11764688-13.64705906zM514.82352969 864l0-364.23529406 72.47058843 101.64705843 71.52941157-101.64705843 0 364.23529406-144 0z"  horiz-adv-x="1024" />

    
    <glyph glyph-name="jiaju" unicode="&#58881;" d="M352.0409375 443.503125h320.62875c44.1609375 0 80.0934375 35.926875 80.0934375 80.08875v260.3071875c-0.0009375 44.1646875-35.9334375 80.1009375-80.0934375 80.1009375h-320.62875c-44.1609375 0-80.0878125-35.93625-80.0878125-80.1009375v-260.3071875c0-44.161875 35.9278125-80.08875 80.0878125-80.08875v0zM332.8746875 777.3365625c0 14.1965625 11.5471875 25.7428125 25.730625 25.7428125h307.5009375c14.1834375 0 25.730625-11.54625 25.730625-25.7428125v-248.120625c0-14.1853125-11.54625-25.7315625-25.730625-25.7315625h-307.5028125c-14.1825 0-25.730625 11.5471875-25.730625 25.7315625l0.0009375 248.120625zM909.8890625 555.9684374999999h-69.084375c-46.089375 0-88.0509375-39.5109375-88.0509375-82.899375v-94.4925c-8.115 2.7778125-16.67625 4.621875-25.7221875 4.621875h-428.4121875c-9.0496875 0-17.615625-1.843125-25.7353125-4.6275v94.498125c0 45.7153125-34.7465625 82.899375-77.443125 82.899375h-70.723125c-45.57375 0-92.715-39.5109375-92.715-82.9003125v-415.8871875c0-41.938125 45.81375-93.181875 92.715-93.181875h87.2840625v-60h59.9521875v60h480.046875v-60h59.986875v60.03375l97.9021875-0.0328125c45.07125 0 82.1109375 49.104375 82.1109375 93.181875v415.8871875c0 46.485-39.225 82.899375-82.1109375 82.9003125v0zM272.8896875 297.4659375c0 14.20125 11.5415625 25.745625 25.7259375 25.745625h428.4140625c14.154375 0 25.674375-11.5021875 25.7221875-25.655625v-68.0325c-0.0478125-14.1571875-11.5678125-25.6378125-25.72125-25.636875h-428.4121875c-14.1834375 0-25.7259375 11.5321875-25.7259375 25.725l-0.0009375 67.8534375zM932.0121875 61.86937499999999c0-18.73875-12.9834375-38.8246875-22.123125-38.8246875h-785.173125c-12.845625 0-32.728125 23.589375-32.7290625 38.8246875v411.1996875c0 13.3340625 17.43 28.54125 32.728125 28.54125h65.094375c14.265 0 23.0859375-14.8171875 23.0859375-28.54125v-333.8559375h599.8453125v79.99875c0 0.0375 0.0103125 0.0553125 0.0103125 0.0890625v129.7321875c0 0.0234375-0.0103125 0.058125-0.0103125 0.0853125v123.9496875c0 13.06875 18.260625 28.54125 33.6890625 28.54125h63.4603125c13.846875 0 22.123125-14.5096875 22.123125-28.54125l-0.0009375-411.1996875zM932.0121875 61.86937499999999z"  horiz-adv-x="1024" />

    
    <glyph glyph-name="diannao" unicode="&#58913;" d="M65 734.15l0-571.951 894 0L959 734.15 65 734.15zM929.2 192L94.8 192 94.8 704.35l834.4 0L929.2 192zM325.75 63.649l372.5 0 0-29.8-372.5 0 0 29.8Z"  horiz-adv-x="1024" />

    
    <glyph glyph-name="chuwei" unicode="&#59038;" d="M633.154849 475.234911c20.059871-4.330632 38.414915-9.281387 55.020104-14.747889 16.603143-5.465478 30.730908-10.777461 42.384319-15.882736 13.870916-5.826705 26.296923-11.447726 37.229926-16.96437l-10.416234-24.080441-446.441888-0.51677-20.830421 25.163099c10.93198 5.825682 23.719214 11.497868 38.311561 16.913205 12.014638 4.744048 26.555819 9.797134 43.469024 15.055904 16.965393 5.363148 35.682687 10.106172 56.101739 14.541181L427.98298 645.963317l205.173916 0L633.154849 475.234911 633.154849 475.234911zM359.040794 292.54405499999996c0 7.990998 1.906419 15.210423 5.723352 21.603017 3.867074 6.28924 8.146541 11.55108 12.890588 15.573697 5.465478 4.744048 11.859096 8.92016 19.181875 12.58155l37.693484-22.430872c-6.960529-2.937912-13.148461-6.187933-18.612916-9.849322-5.105275-2.886747-9.746992-6.547113-13.923104-10.933003-4.227278-4.432962-7.012717-8.970302-8.456602-13.663184-1.133823-4.797259-1.133823-9.951653 0-15.625886 1.082658-5.671163 2.26867-11.602246 3.505847-17.841344 1.288343-6.136767 2.010797-12.58155 2.217505-19.387559 0.155543-6.703679-1.186012-13.5629-4.073782-20.524452-2.989077-7.269567-6.804986-13.71435-11.496845-19.387559-4.797259-5.672186-9.334599-10.517541-13.716396-14.487969-5.105275-4.745071-10.365068-8.921183-15.830547-12.633738l-22.48306 39.394219c3.301186 1.496074 6.600325 3.505847 9.900487 6.083555 2.886747 2.167363 6.033413 5.002944 9.280364 8.456602 3.302209 3.40454 6.756891 7.737218 10.417257 12.894681 3.300162 5.052063 5.053086 9.537214 5.208629 13.406335 0.153496 3.764744-0.257873 7.786337-1.39272 11.962449-1.082658 4.227278-2.371 8.972349-3.815909 14.283308-1.443885 5.259794-2.165316 12.117992-2.165316 20.523429L359.040794 292.54405499999996 359.040794 292.54405499999996zM547.817252 333.02195500000005c-5.466502-5.517667-10.209526-10.777461-14.232143-15.882736-3.660366-4.745071-6.963599-9.694803-9.900487-14.798031-2.88777-5.107321-4.176113-10.211573-3.815909-15.315824 0.412392-4.693906 2.009773-9.644661 4.949732-14.747889 2.886747-5.15644 5.983271-10.416234 9.281387-15.882736 3.301186-5.465478 6.082532-11.395538 8.457626-17.789155 2.368954-6.392594 3.196809-13.251815 2.475378-20.47124-0.722454-7.736195-2.37407-14.953573-4.949732-21.914102-2.475378-6.961552-5.262864-12.942777-8.148587-18.048051-3.662413-6.240121-7.528464-11.913331-11.499915-16.96437l-33.361829 30.113855c2.527566 2.164293 4.950755 5.053086 7.115048 8.714476 1.753947 2.937912 3.712555 6.446829 5.672186 10.67513 2.064009 4.176113 3.919263 9.384741 5.776563 15.57165 1.443885 5.879917 1.752924 10.67513 0.825808 14.542204-0.929162 3.814886-2.579755 7.526417-4.89959 11.138688-2.371 3.712555-5.000897 7.837502-7.941879 12.374842-2.937912 4.538363-5.67014 10.622942-8.196683 18.35709-2.939959 7.630794-3.403516 15.004739-1.342578 22.170952 1.960655 7.117095 4.436032 13.356193 7.322779 18.87386 3.712555 6.494924 8.250918 12.580526 13.715373 18.047028L547.817252 333.02195500000005zM648.468626 287.54008799999997c1.443885-4.689812 4.229325-9.230222 8.250918-13.614066 4.02364-4.433986 8.148587-8.972349 12.58155-13.71435 4.331655-4.745071 8.355295-9.900487 12.013615-15.57472 3.66139-5.67014 6.033413-12.168134 7.116071-19.385513 0.774643-7.372921 0.774643-14.646582 0-21.915126-0.772596-7.269567-2.00875-13.870916-3.815909-19.750833-1.804089-6.495948-4.176113-12.94073-7.114025-19.126616l-39.396265 21.914102c1.805112 2.886747 3.456728 6.342452 4.900613 10.414187 1.131777 3.25002 2.214435 7.271614 3.300162 12.016685 1.1328 4.744048 1.855254 10.259668 2.163269 16.447601 0.412392 6.187933-0.309038 10.930957-2.163269 14.230096-1.856277 3.25002-4.229325 6.447852-7.373944 9.540284-3.095501 3.093455-6.65149 6.599302-10.677177 10.416234-4.021593 3.815909-8.250918 9.231245-12.580526 16.138562-4.02364 6.909363-5.931083 14.024411-5.776563 21.347191 0.206708 7.319709 1.237177 14.024411 2.992147 20.213367 2.269693 6.961552 5.363148 13.713326 9.331529 20.264533l43.778062 0.566912c-4.021593-5.877871-7.475252-11.859096-10.417257-18.047028-2.527566-5.157463-4.743024-10.621918-6.54609-16.448624-1.804089-5.825682-2.01182-11.086499-0.568958-15.830547L648.468626 287.54008799999997 648.468626 287.54008799999997z"  horiz-adv-x="1024" />

    
    <glyph glyph-name="gang" unicode="&#58938;" d="M531.185456-47.532317000000035c0-8.899694-6.493901-16.114003-14.503319-16.114003l-9.364275 0c-8.010441 0-14.504342 7.214309-14.504342 16.114003L492.81352 815.53334c0 8.898671 6.493901 16.114003 14.504342 16.114003l9.364275 0c8.009418 0 14.503319-7.215332 14.503319-16.114003L531.185456-47.532317000000035z"  horiz-adv-x="1024" />

    
    <glyph glyph-name="xiajt" unicode="&#58954;" d="M151.476947 696.4460819999999l718.53082 0c39.763632 0 71.922053-31.909757 71.922053-71.675436 0-18.485003-7.095605-35.205826-18.486026-47.872311L568.114019 102.77294400000005c-23.810289-31.400151-68.641333-37.993313-100.29731-14.183024-5.570879 4.052293-10.384511 8.873088-14.183024 14.190187L94.235245 581.958584c-23.547299 31.407314-17.217127 76.479859 14.436804 100.041484 12.922311 9.881045 27.864628 14.43885 42.804898 14.43885l0 0L151.476947 696.4460819999999zM151.476947 696.4460819999999"  horiz-adv-x="1024" />

    
    <glyph glyph-name="fankui" unicode="&#58892;" d="M511.609097-65.61925399999996M946.867272 748.8321960000001l-70.839395 70.847581c-16.321734 16.08228-42.418089 16.08228-58.496276 0l-74.117045-74.108858 129.343857-129.343857 74.108858 73.882708C962.953645 706.652538 962.953645 732.754009 946.867272 748.8321960000001L946.867272 748.8321960000001 946.867272 748.8321960000001zM721.512734 723.434759L320.671417 309.774485 287.815101 160.61839699999996l149.146878 32.864502 411.561473 403.171386L721.512734 723.434759 721.512734 723.434759zM809.838386 384.348947l0-349.570607c0-11.887748-9.083889-23.541159-21.437242-23.541159-12.353352 0-626.900913 0.23536-626.900913 0.23536-13.049201 0-22.841218 12.583596-22.841218 23.305799L138.659013 659.345092c0 11.653411 10.952446 23.305799 24.705682 23.305799l348.170724 0 74.574463 74.573439-467.487204 0c-30.299073 0-54.536081-24.004717-54.536081-54.301743l0-711.496613c0-30.05655 24.470321-54.527894 54.536081-54.527894l711.49252 0c30.061666 0 54.296627 24.470321 54.296627 54.527894L884.411825 458.921363 809.838386 384.348947 809.838386 384.348947 809.838386 384.348947zM809.838386 384.348947"  horiz-adv-x="1024" />

    
    <glyph glyph-name="licai" unicode="&#58960;" d="M913.77783687 35.953735309999956L164.06276 35.953735309999956 164.06276 785.66975625c0 34.74558281-28.16724656 62.91283031-62.91283031 62.91283031l-5.24360157 0c-34.74558281 0-62.91283031-28.16724656-62.91283031-62.91283031l0-812.55616687c0-0.02548687-0.00188813-0.04908469-0.00188812-0.07268344l0-5.24360156c0-34.74558281 28.16724656-62.91188625 62.91283031-62.91188625l0.00188812 0 5.24360157 0L913.77783687-95.11458187000005c34.74652688 0 62.91283031 28.16724656 62.91283032 62.91188625l0 5.24360156C976.69161125 7.78648781000004 948.52436375 35.953735309999956 913.77783687 35.953735309999956zM291.41477563 140.45478749999995L193.99234812 193.59309186999997 382.96682375 540.04834125 522.38997594 428.50925344 626.17929594 558.24566719 722.47937563 486.01989937 875.4094025 770.03145844 973.11690031 717.4217625 759.05431906 319.87561969 645.64244844 404.93239875 539.72265031 272.53029094 417.00444969 370.7031525Z"  horiz-adv-x="1024" />

    
    <glyph glyph-name="muying" unicode="&#59316;" d="M-473.554846-85.684529M958.634638 483.166135c0 17.029397-13.761129 30.274483-30.274483 30.274483-16.685369 0-30.274483-13.417101-30.274483-30.274483l0-53.15236L574.011087 430.013775c-1.720141 0-3.268268 1.376113-3.268268 3.268268L570.742819 834.590963l-61.753066 0-0.344028 0C264.04166 832.870821 65.365362 632.302369 65.365362 387.870317c0-89.96338 26.662187-176.658492 77.234336-250.968587 0.344028-0.688056 0.688056-1.720141 0.344028-2.580212-0.344028-0.688056-0.688056-1.376113-1.720141-1.720141-35.778935-17.373425-59.172854-54.184445-59.172854-94.263733 0-57.796741 46.959852-104.412565 104.412565-104.412565 43.003528 0 81.19066 25.974131 97.187972 66.053418 0.344028 0.688056 1.032085 1.376113 1.720141 1.720141 0.344028 0 0.688056 0 1.032085 0 0.344028 0 1.032085 0 1.376113-0.344028 67.945574-39.391231 145.179909-60.032925 223.618344-60.032925 77.234336 0 153.436587 20.297665 220.694104 58.484798 0.344028 0.344028 1.032085 0.344028 1.376113 0.344028s0.688056 0 1.032085 0c0.688056-0.344028 1.376113-1.032085 1.720141-1.720141 16.169326-39.047203 54.184445-64.333277 96.499916-64.333277 57.796741 0 104.412565 46.959852 104.412565 104.412565 0 39.047203-21.673778 74.826138-56.420628 92.88762-0.688056 0.344028-1.376113 1.032085-1.376113 1.720141 0 0.688056 0 1.720141 0.344028 2.580212 47.30388 68.977658 74.48211 149.136234 78.094406 232.563077 0 0.688056 0.344028 1.032085 0.344028 1.376113l0 2.064169c0.172014 1.376113 0.344028 2.92424 0.344028 4.472367L958.462624 483.166135zM508.473711 774.21401c0.688056 0 1.376113-0.344028 2.236183-0.688056 0.688056-0.688056 1.032085-1.376113 1.032085-2.236183L511.741979 433.282043c0-1.720141-1.376113-3.268268-3.268268-3.268268L131.074752 430.013775c-0.688056 0-1.720141 0.344028-2.236183 1.032085-0.688056 0.688056-0.688056 1.376113-0.688056 2.580212C151.028389 626.109861 314.613808 772.493869 508.473711 774.21401zM186.807324-1.913657c-22.017806 0-40.079288 18.061482-40.079288 40.079288 0 22.017806 18.061482 40.079288 40.079288 40.079288 0.344028 0 1.032085 0 1.376113 0l0.344028 0c0.688056 0 1.720141-0.344028 2.236183-1.032085 10.836889-11.180917 22.705863-22.361834 34.74685-32.510667 0.688056-0.688056 1.032085-1.720141 1.032085-2.580212 0-1.032085-0.344028-2.236183 0-3.268268l0.344028-0.688056C226.886612 16.147825 208.82513-1.913657 186.807324-1.913657zM833.236351-1.913657c-22.017806 0-40.079288 18.061482-40.079288 40.079288l0 1.376113c0 1.032085 0.344028 1.720141 1.032085 2.580212 13.417101 10.836889 25.974131 22.705863 38.359147 35.090879 0.688056 0.688056 1.376113 1.032085 2.236183 1.032085 21.673778-0.688056 38.359147-18.40551 38.359147-40.079288C873.315639 16.147825 855.254158-1.913657 833.236351-1.913657zM511.741979 1.354611c-205.90089 0-375.678817 161.005207-386.171678 366.56207 0 0.688056 0.344028 1.720141 0.688056 2.236183 0.344028 0.344028 1.376113 1.032085 2.236183 1.032085l766.150848 0c1.032085-0.344028 1.720141-0.688056 2.580212-1.032085 0.688056-0.688056 0.688056-1.376113 0.688056-2.236183C887.420796 162.359819 717.642869 1.354611 511.741979 1.354611z"  horiz-adv-x="1024" />

    
    <glyph glyph-name="xjt" unicode="&#58968;" d="M454.188 110.97799999999995c-145.192 150.177-290.378 300.353-435.422 450.526-59.842 61.836 37.327 154.021 97.313 91.899 129.23-133.647 258.318-267.296 387.548-400.868 133.646 134.287 267.436 268.574 401.083 402.934 60.84 61.123 158.011-31.06 97.244-91.971-150.105-150.89-300.279-301.703-450.454-452.521-24.933-24.934-72.666-25.575-97.311 0z"  horiz-adv-x="1024" />

    
    <glyph glyph-name="wode" unicode="&#58927;" d="M944.756-56.134000000000015c0 0-3.743-32.64-53.282-26.997-15.766 1.792-32.56 26.997-32.56 26.997C830.177 127.83500000000004 686.677 267.83000000000004 513.515 267.83000000000004c-173.16 0-316.661-139.995-345.398-323.964 0 0-6.618-24.836-32.56-26.997-60.585-5.063-53.282 26.997-53.282 26.997 5.563 168.889 114.183 312.547 267.043 373.555-79.989 53.229-132.771 144.106-132.771 247.375 0 164.012 132.955 296.967 296.967 296.967s296.967-132.955 296.967-296.967c0-103.269-52.78-194.146-132.77-247.375C830.572 256.413 939.192 112.755 944.756-56.134000000000015zM729.492 564.797c0 119.272-96.704 215.976-215.977 215.976-119.271 0-215.976-96.704-215.976-215.976s96.704-215.975 215.976-215.975C632.788 348.822 729.492 445.525 729.492 564.797z"  horiz-adv-x="1024" />

    
    <glyph glyph-name="shouji" unicode="&#59183;" d="M714.23-7.708h-400.517c-23.698 0-42.937 19.183-42.937 42.935v743.788c0 23.698 19.238 42.937 42.937 42.937h400.518c23.698 0 42.937-19.187 42.937-42.937v-743.842c0-23.697-19.239-42.881-42.938-42.881v0zM513.972 35.172c15.813 0 28.623 12.809 28.623 28.626 0 15.813-12.811 28.623-28.623 28.623-15.817 0-28.623-12.809-28.623-28.623 0-15.817 12.805-28.626 28.623-28.626v0zM714.23 736.136h-400.518v-600.779h400.518v600.779zM714.23 736.136z"  horiz-adv-x="1024" />

    
    <glyph glyph-name="dingwei" unicode="&#58942;" d="M516.320553 830.086277C327.473365 829.240951 174.512778 674.914838 175.350878 486.045975c0.787526-177.21493 282.974557-496.596289 315.154731-532.417865a39.737529 39.737529 0 0 1 59.440119 0.2601c31.862273 36.110576 311.202653 357.991787 310.415127 535.213942-0.838101 188.861638-155.178664 341.822225-344.040302 340.984125z m2.196402-492.860961c-76.483906-0.339575-139.009102 61.614845-139.348677 138.105976-0.339575 76.491131 61.629295 139.001877 138.105976 139.334227 76.512806 0.3468 139.023552-61.60762 139.363127-138.091526 0.339575-76.498356-61.614845-139.001877-138.120426-139.348677z"  horiz-adv-x="1024" />

    
    <glyph glyph-name="qiche" unicode="&#58919;" d="M882.6 451.1h-21.9L787 696.3c-7.1 23.6-28.4 39.4-53 39.4H288.1c-24.6 0-45.9-15.8-53-39.4l-73.8-245.2h-21.9c-30.5 0-55.3-24.8-55.3-55.3v-221.4c0-30.5 24.8-55.3 55.3-55.3h24.4v-44.5c0-21.8 17.7-39.5 39.5-39.5s39.5 17.7 39.5 39.5V119h536.4v-44.5c0-21.8 17.7-39.5 39.5-39.5s39.5 17.7 39.5 39.5V119h24.3c30.5 0 55.3 24.8 55.3 55.3V395.7c0.2 30.5-24.6 55.4-55.2 55.4zM280.5 682.6c1 3.4 4.1 5.6 7.6 5.6H734c3.5 0 6.6-2.3 7.6-5.6L811.2 451H210.8l69.7 231.6z m610.1-508.2c0-4.4-3.6-7.9-7.9-7.9H139.4c-4.4 0-7.9 3.5-7.9 7.9V395.7c0 4.4 3.6 7.9 7.9 7.9h743.2c4.4 0 7.9-3.5 7.9-7.9v-221.3zM250.7 332.5c-26.2 0-47.4-21.2-47.4-47.4s21.2-47.4 47.4-47.4 47.4 21.2 47.4 47.4c0.1 26.1-21.2 47.4-47.4 47.4z m528.5 0c-26.2 0-47.4-21.2-47.4-47.4s21.2-47.4 47.4-47.4 47.4 21.2 47.4 47.4c0.1 26.1-21.2 47.4-47.4 47.4z"  horiz-adv-x="1024" />

    
    <glyph glyph-name="sao" unicode="&#58977;" d="M69.29375 488.165625a26.034375 26.034375 0 0 1 26.04375 26.04375V800.6625h286.453125a26.04375 26.04375 0 1 1 0 52.0875H69.29375A26.034375 26.034375 0 0 1 43.25 826.70625v-312.496875a26.034375 26.034375 0 0 1 26.04375-26.04375zM381.790625-32.66250000000002H95.3375V253.79062499999998a26.04375 26.04375 0 1 1-52.0875 0v-312.496875A26.034375 26.034375 0 0 1 69.29375-84.75h312.496875a26.04375 26.04375 0 0 1 0 52.0875zM954.70625 852.75H642.209375a26.04375 26.04375 0 1 1 0-52.0875h286.453125v-286.453125a26.04375 26.04375 0 1 1 52.0875 0V826.70625A26.025 26.025 0 0 1 954.70625 852.75zM954.70625 279.834375a26.025 26.025 0 0 1-26.04375-26.04375v-286.453125H642.209375a26.04375 26.04375 0 1 1 0-52.0875h312.496875a26.025 26.025 0 0 1 26.04375 26.04375V253.79062499999998a26.025 26.025 0 0 1-26.04375 26.04375zM954.70625 410.04375H69.29375a26.04375 26.04375 0 0 1 0-52.0875h885.4125a26.04375 26.04375 0 0 1 0 52.0875z"  horiz-adv-x="1024" />

    
    <glyph glyph-name="lanqiu" unicode="&#60019;" d="M583.94 737.4c19.56-54.9 33.24-120.18 40.14-191.58 56.88-2.1 110.64-8.58 161.16-19.44 2.22 14.52 5.52 27.24 9.12 37.98 10.62 31.92 27.96 59.7 50.22 80.4 15.12 14.04 31.8 24.24 49.2 30.18a481.6828125 481.6828125 0 0 1-42.36 48.42c-44.1 44.1-95.4 78.66-152.58 102.84C640.1 851.1 577.76 863.82 513.44 864c28.14-31.68 51.78-74.04 70.5-126.6zM926 621.72c-30.36-2.46-61.38-33.72-75.42-75.96-3.12-9.36-5.94-20.76-7.56-33.96 52.14-15.42 100.32-36 144.48-61.62a473.67375 473.67375 0 0 1-33.24 120.66 496.790625 496.790625 0 0 1-25.38 51.3c-0.9-0.18-1.86-0.3-2.88-0.42z m-643.92 42.42c45.96-25.56 78.72-65.64 94.8-115.98a231.763125 231.763125 0 0 0 4.62-16.8c50.58 7.32 99.6 12.06 146.82 14.16 12.18 0.48 24.24 0.84 36.18 0.96-6.6 63.96-18.96 122.16-36.36 171-23.76 66.66-56.52 114.3-94.68 137.7-1.02 0.6-1.92 1.26-2.82 1.98-36.12-6.18-71.4-16.5-105.48-30.9-57.18-24.18-108.48-58.8-152.58-102.84a478.2525 478.2525 0 0 1-25.44-27.54c51.72-0.06 97.02-10.68 134.94-31.74z m709.26-286.32c-45.18 30.84-94.26 54.24-146.04 71.28 2.22-12.3 5.64-25.32 10.44-39.12 19.68-56.22 58.62-111.78 115.74-165.3C984.5 287.52 991.4 331.98 992 377.4a4.0359375 4.0359375 0 0 0-0.66 0.42zM569.48 473.94c-0.18 4.5-0.36 9-0.54 13.44-60.06-0.72-120.84-6.18-180.96-15-0.12-12.6-1.08-25.44-2.94-38.58-5.7-40.5-19.56-81.42-41.1-121.74-45.18-84.42-120.06-158.58-216.9-214.86 13.86-18.54 29.04-36.12 45.6-52.62 44.1-44.1 95.4-78.66 152.58-102.84 41.1-17.4 84-28.8 128.1-34.2 79.56 157.56 123 369.3 116.16 566.4z m-246.66 47.82c-0.72 2.82-1.5 5.64-2.4 8.4-24.84 77.82-101.76 115.92-211.14 104.46-2.28-0.24-4.5-0.24-6.72 0.06a474.4603125 474.4603125 0 0 1-32.82-63.84C53.12 531.48 41.9 490.56 36.26 448.5c99.84 32.34 195.6 56.82 286.56 73.26z m623.94-334.62c-72.78 64.32-122.22 132.78-146.88 203.28-9.6 27.54-14.64 52.92-16.5 75.9-50.16 11.46-102.18 17.88-155.1 20.16 0.12-3.48 0.3-6.96 0.42-10.44 3.42-98.4-5.16-203.16-24.9-303.12-19.38-98.16-48.42-188.46-86.34-268.92 62.88 0.72 123.9 13.38 181.44 37.68 57.18 24.18 108.48 58.8 152.58 102.84 40.98 40.98 73.8 88.32 97.62 140.7-0.84 0.6-1.62 1.2-2.34 1.92zM291.68 340.02c22.02 41.16 34.44 83.4 36.6 122.52-101.46-18.66-199.56-45.84-287.4-74.88a30.62625 30.62625 0 0 0-8.88-1.5V384c0-64.8 12.72-127.68 37.74-186.84 7.32-17.28 15.6-34.08 24.84-50.28 111.72 64.2 168.84 140.28 197.1 193.14z m0 0"  horiz-adv-x="1024" />

    
    <glyph glyph-name="sjt" unicode="&#58925;" d="M910.222222 99.55555600000002c-17.066667 0-34.133333 5.688889-45.511111 17.066666L551.822222 486.4c-11.377778 5.688889-17.066667 11.377778-34.133333 11.377778-5.688889 0-22.755556-5.688889-28.444445-11.377778l-329.955555-364.088889c-22.755556-22.755556-56.888889-22.755556-79.644445-5.688889-22.755556 22.755556-22.755556 56.888889-5.688888 79.644445l329.955555 364.088889c28.444444 34.133333 73.955556 51.2 119.466667 51.2s85.333333-22.755556 119.466666-56.888889l312.888889-364.088889c22.755556-22.755556 17.066667-56.888889-5.688889-79.644445-11.377778-5.688889-28.444444-11.377778-39.822222-11.377777z"  horiz-adv-x="1024" />

    
    <glyph glyph-name="rengong" unicode="&#59118;" d="M892.928 542.72c-12.672 196.8-177.728 349.184-380.928 349.184s-361.92-152.384-380.928-349.184c-69.888-19.008-126.976-82.496-126.976-158.72v-63.488a157.184 157.184 0 0 1 158.72-158.72h95.232v380.992h-63.488c19.008 158.656 152.384 285.696 317.44 285.696 165.12 0 298.432-126.976 317.44-285.696h-63.488v-380.992h63.488c-31.744-126.912-145.984-228.544-285.696-228.544-19.008 0-44.416 0-63.488 6.4v-57.152c19.072-6.4 44.48-6.4 63.488-6.4 171.456 0 317.44 126.976 342.784 285.696 6.4 19.072 6.4 38.144 6.4 63.488h-63.488v254.016h44.48c44.352 0 82.496-44.48 82.496-108.032v-44.352c0-57.152-38.144-108.032-82.496-108.032h19.008c0-19.008 0-38.08-6.4-63.424 76.224 19.072 133.376 88.896 133.376 165.056v63.488c0.064 76.224-57.088 139.776-126.976 158.72z m-742.848-63.488h44.48v-260.352h-44.48c-44.352 6.4-82.496 50.88-82.496 114.368v38.016c0 63.488 38.08 107.968 82.496 107.968z m0 0"  horiz-adv-x="1024" />

    
    <glyph glyph-name="zuji" unicode="&#58902;" d="M354.133333-83.2c-23.466667 0-46.933333 6.4-68.266666 21.333333-44.8 32-72.533333 96-78.933334 174.933334 0 12.8 6.4 23.466667 19.2 27.733333l162.133334 46.933333c12.8 4.266667 25.6-2.133333 29.866666-12.8v-2.133333c32-53.333333 59.733333-138.666667 36.266667-194.133333-10.666667-27.733333-34.133333-46.933333-66.133333-57.6-10.666667-2.133333-21.333333-4.266667-34.133334-4.266667z m-91.733333 179.2c8.533333-53.333333 27.733333-96 55.466667-115.2 17.066667-12.8 36.266667-14.933333 59.733333-8.533333 17.066667 4.266667 25.6 12.8 32 25.6 12.8 32-2.133333 87.466667-23.466667 132.266666l-123.733333-34.133333z m407.466667-19.2c-10.666667 0-23.466667 2.133333-36.266667 4.266667-32 8.533333-55.466667 27.733333-66.133333 57.6-23.466667 57.6 4.266667 140.8 36.266666 196.266666 6.4 10.666667 19.2 17.066667 32 12.8l162.133334-46.933333c12.8-4.266667 19.2-14.933333 19.2-27.733333-6.4-81.066667-36.266667-145.066667-78.933334-174.933334-21.333333-12.8-44.8-21.333333-68.266666-21.333333z m-29.866667 213.333333c-23.466667-44.8-36.266667-100.266667-23.466667-132.266666 6.4-12.8 14.933333-21.333333 32-25.6 23.466667-6.4 42.666667-4.266667 59.733334 8.533333 27.733333 19.2 46.933333 61.866667 55.466666 115.2L640 290.133333zM228.266667 149.333333c-4.266667 0-10.666667 2.133333-14.933334 4.266667-6.4 4.266667-10.666667 10.666667-12.8 17.066667-6.4 34.133333-17.066667 59.733333-29.866666 89.6-23.466667 57.6-51.2 121.6-46.933334 245.333333 2.133333 68.266667 21.333333 119.466667 57.6 151.466667 36.266667 34.133333 76.8 32 81.066667 32 98.133333 0 138.666667-93.866667 157.866667-164.266667 32-108.8 10.666667-168.533333-2.133334-202.666667v-2.133333c-12.8-36.266667-17.066667-68.266667-12.8-98.133333 2.133333-12.8-6.4-25.6-19.2-29.866667L234.666667 149.333333h-6.4z m34.133333 488.533334c-10.666667 0-76.8-4.266667-83.2-132.266667-4.266667-113.066667 19.2-168.533333 42.666667-224 8.533333-23.466667 19.2-44.8 27.733333-72.533333l102.4 29.866666c0 29.866667 6.4 64 17.066667 98.133334l2.133333 4.266666c10.666667 32 27.733333 78.933333 0 170.666667-32 110.933333-74.666667 125.866667-108.8 125.866667z m533.333333-328.533334H789.333333l-151.466666 42.666667c-12.8 4.266667-21.333333 14.933333-19.2 29.866667 4.266667 27.733333-2.133333 61.866667-12.8 98.133333l-2.133334 4.266667c-12.8 36.266667-32 93.866667-2.133333 202.666666 21.333333 70.4 59.733333 164.266667 160 164.266667 2.133333 0 42.666667 2.133333 78.933333-32 34.133333-32 53.333333-83.2 57.6-151.466667 4.266667-123.733333-21.333333-189.866667-46.933333-245.333333-12.8-29.866667-23.466667-55.466667-29.866667-89.6-2.133333-6.4-6.4-12.8-12.8-17.066667-2.133333-4.266667-8.533333-6.4-12.8-6.4z m-121.6 89.6l102.4-29.866666c6.4 25.6 17.066667 49.066667 27.733334 72.533333 23.466667 55.466667 46.933333 110.933333 42.666666 224-2.133333 53.333333-17.066667 93.866667-40.533333 115.2-21.333333 19.2-42.666667 19.2-42.666667 19.2-34.133333 0-76.8-14.933333-108.8-125.866667-25.6-91.733333-10.666667-138.666667 0-170.666666l2.133334-4.266667c10.666667-36.266667 17.066667-68.266667 17.066666-100.266667z"  horiz-adv-x="1024" />

    
    <glyph glyph-name="jiadian" unicode="&#58911;" d="M882.1 79.10000000000002H751.8c-12 0-21.8 9.7-21.8 21.8s9.8 21.8 21.8 21.8h130.3c12 0 21.8-9.7 21.8-21.8s-9.8-21.8-21.8-21.8zM882.1 144.39999999999998H751.8c-12 0-21.8 9.7-21.8 21.8s9.8 21.8 21.8 21.8h130.3c12 0 21.8-9.7 21.8-21.8s-9.8-21.8-21.8-21.8zM882.1 209.79999999999995H751.8c-12 0-21.8 9.7-21.8 21.8 0 12 9.8 21.8 21.8 21.8h130.3c12 0 21.8-9.7 21.8-21.8 0-12-9.8-21.8-21.8-21.8zM839 546.2c24 0 43.6-19.6 43.6-43.6v-414.1c0-24-19.6-43.6-43.6-43.6H185.2c-24 0-43.6 19.6-43.6 43.6V502.6c0 24 19.6 43.6 43.6 43.6H839m0 43.5H185.2c-47.9 0-87.2-39.2-87.2-87.2v-414.1c0-47.9 39.2-87.2 87.2-87.2H839c47.9 0 87.2 39.2 87.2 87.2V502.6c-0.1 47.9-39.3 87.1-87.2 87.1zM632.8 448.2c11.8 0 21.8-10 21.8-21.8v-261.5c0-11.8-10-21.8-21.8-21.8H262.4c-11.8 0-21.8 10-21.8 21.8V426.4c0 11.8 10 21.8 21.8 21.8h370.4m0 43.6H262.4c-36 0-65.4-29.4-65.4-65.4v-261.5c0-36 29.4-65.4 65.4-65.4h370.5c36 0 65.4 29.4 65.4 65.4V426.4c-0.1 35.9-29.5 65.4-65.5 65.4zM795.4 361c-36.1 0-65.4 29.3-65.4 65.4s29.3 65.4 65.4 65.4c36.1 0 65.4-29.3 65.4-65.4S831.4 361 795.4 361z m0 87.2c-12 0-21.8-9.8-21.8-21.8s9.8-21.8 21.8-21.8 21.8 9.8 21.8 21.8-9.8 21.8-21.8 21.8zM445.5 557.7c-9.1 0-18.1 2.9-25.8 8.6l-120 99.4c-9.3 7.7-10.6 21.4-2.9 30.7 7.7 9.3 21.5 10.6 30.7 2.9l119-98.7 174.1 160.8c8.9 8.1 22.7 7.5 30.8-1.4 8.1-8.9 7.5-22.7-1.4-30.8L474.6 568.8c-8.5-7.4-18.8-11.1-29.1-11.1z"  horiz-adv-x="1024" />

    
    <glyph glyph-name="rightgwc" unicode="&#58882;" d="M334.366118 293.647059h667.286588L1054.117647 685.176471H248.289882l86.076236-391.529412zM222.117647 745.4117650000001H1054.117647a60.235294 60.235294 0 0 0 59.693177-68.246589l-52.464942-391.529411A60.235294 60.235294 0 0 0 1001.652706 233.41176499999995H336.715294l26.955294-120.470589H933.647059a30.117647 30.117647 0 0 0 0-60.235294H339.516235a30.117647 30.117647 0 0 0-29.394823 23.552L140.167529 835.764706H30.117647a30.117647 30.117647 0 0 0 0 60.235294h134.174118a30.117647 30.117647 0 0 0 29.394823-23.552L222.117647 745.4117650000001zM331.294118-67.76470600000005a60.235294 60.235294 0 1 1 0 120.470588 60.235294 60.235294 0 0 1 0-120.470588z m0-60.235294a120.470588 120.470588 0 1 0 0 240.941176 120.470588 120.470588 0 0 0 0-240.941176z m602.352941 60.235294a60.235294 60.235294 0 1 1 0 120.470588 60.235294 60.235294 0 0 1 0-120.470588z m0-60.235294a120.470588 120.470588 0 1 0 0 240.941176 120.470588 120.470588 0 0 0 0-240.941176z"  horiz-adv-x="1114" />

    
    <glyph glyph-name="xiangbao" unicode="&#58896;" d="M835.9 497.3L760 578h-76v57.8l-81.3 95.8H421.3L340 635.8V578h-76l-75.9-80.7-18-420.9h683.8l-18 420.9zM371.7 624.1l64.3 75.7h152l64.3-75.7V578H371.7v46.1zM203.3 108.2l15.2 356 240.8-135 15.5 27.7-245.6 137.7 48.5 51.6h468.6l48.5-51.6-245.6-137.7 15.5-27.7 240.8 135 15.2-356H203.3zM575.3 251.6h-127V392.5H480v-109.1h63.5V418.1h31.8z"  horiz-adv-x="1024" />

    
    <glyph glyph-name="jiantou1" unicode="&#59471;" d="M444.081633 206.367347c-5.22449 0-10.44898 2.089796-14.628572 6.269388-8.359184 8.359184-8.359184 21.420408 0 29.779592l156.734694 156.734693c8.359184 8.359184 21.420408 8.359184 29.779592 0 8.359184-8.359184 8.359184-21.420408 0-29.779591l-156.734694-156.734694c-4.702041-4.179592-9.926531-6.269388-15.15102-6.269388zM600.816327 363.102041c-5.22449 0-10.44898 2.089796-14.628572 6.269388l-156.734694 156.734693c-8.359184 8.359184-8.359184 21.420408 0 29.779592 8.359184 8.359184 21.420408 8.359184 29.779592 0l156.734694-156.734694c8.359184-8.359184 8.359184-21.420408 0-29.779591-4.702041-4.179592-9.926531-6.269388-15.15102-6.269388zM512-33.959184c-230.4 0-417.959184 187.559184-417.959184 417.959184s187.559184 417.959184 417.959184 417.959184 417.959184-187.559184 417.959184-417.959184-187.559184-417.959184-417.959184-417.959184z m0 794.122449c-207.412245 0-376.163265-168.75102-376.163265-376.163265s168.75102-376.163265 376.163265-376.163265 376.163265 168.75102 376.163265 376.163265-168.75102 376.163265-376.163265 376.163265z"  horiz-adv-x="1024" />

    
    <glyph glyph-name="navgwc" unicode="&#59039;" d="M871.86666688 159.38666624999996H336.61333344c-42.40000031 0.37333313-77.76 33.76000031-82.18666688 77.60000063l-37.22666625 354.13333312c-2.66666625 24.77333344 5.01333375 49.54666687 21.06666657 68.08000031a81.06666656 81.06666656 0 0 0 61.33333312 28.45333313h610.42666687a81.67999969 81.67999969 0 0 0 60.39999938-29.65333313c16.00000031-18.58666687 23.65333312-43.33333313 21.0666675-68.10666656l-37.2-352.93333406c-4.32-43.94666625-39.89333344-77.44000031-82.42666688-77.59999969zM299.6 614.6666662499999a12 12 0 0 1-9.12-4.3733325 14.71999969 14.71999969 0 0 1-3.49333312-11.44000031l37.68-354.37333313a13.12000031 13.12000031 0 0 1 12.42666656-12.40000031h534.77333344a13.09333313 13.09333313 0 0 1 12.63999937 12.40000031l37.22666719 354.39999938a15.73333313 15.73333313 0 0 1-3.52000031 11.41333406 12 12 0 0 1-9.12 4.3733325H299.62666625zM270.13333344 387.04000031c-17.78666625 0-32.77333313 13.78666687-34.90666688 32.10666656L193.33333344 779.59999969a13.30666687 13.30666687 0 0 1-12.42666656 11.44000031H67.11999969C47.73333313 791.04 32 807.36 32 827.52 32 847.65333375 47.73333313 864 67.11999969 864h113.78666719C222.39999969 863.68000031 257.28000031 831.73333313 262.85333375 789.06666656l42.13333313-361.89333281c1.14666656-9.6-1.46666625-19.30666688-7.2-26.93333344-5.76-7.60000031-14.18666625-12.53333344-23.46666657-13.68l-4.18666687 0.48z m133.44-312.80000062c25.86666656 0 46.82666625-21.76000031 46.82666625-48.63999938 0-26.85333375-20.95999969-48.64000031-46.82666625-48.64000031s-46.82666625 21.78666656-46.82666719 48.64000031c0 26.88 20.98666687 48.66666656 46.82666719 48.66666656z m0 72.98666718c-64.63999969 0-117.06666656-54.45333375-117.06666657-121.60000031 0-67.2 52.42666688-121.62666656 117.06666657-121.62666656 64.66666688 0 117.06666656 54.45333375 117.06666656 121.60000031 0 32.26666687-12.31999969 63.19999969-34.26666656 85.99999969a114.90666656 114.90666656 0 0 1-82.8 35.62666687z m398.05333312-72.96c18.93333375 0 36-11.86666687 43.25333344-30.02666718a50.02666688 50.02666688 0 0 0-10.13333344-53.01333282 45.54666656 45.54666656 0 0 0-51.04000031-10.56 48.69333375 48.69333375 0 0 0-28.90666594 44.93333344c0 26.88 20.95999969 48.66666656 46.82666625 48.66666656z m0 72.96c-64.66666688 0-117.06666656-54.45333375-117.06666656-121.60000031 0-67.2 52.39999969-121.62666656 117.06666656-121.62666656 64.63999969 0 117.06666656 54.45333375 117.06666657 121.60000031 0 32.26666687-12.34666688 63.19999969-34.29333282 85.99999969a114.90666656 114.90666656 0 0 1-82.77333375 35.62666687z"  horiz-adv-x="1024" />

    
    <glyph glyph-name="bangbangtang" unicode="&#58895;" d="M598.683 59.468c-52.478 0-103.396 10.282-151.342 30.562-46.3 19.583-87.877 47.614-123.577 83.313-35.7 35.7-63.73 77.277-83.313 123.577-20.279 47.945-30.562 98.864-30.562 151.342s10.282 103.397 30.562 151.342c19.583 46.3 47.614 87.877 83.313 123.577s77.277 63.73 123.577 83.313c47.945 20.279 98.864 30.562 151.342 30.562 52.479 0 103.397-10.282 151.343-30.562 46.3-19.583 87.877-47.614 123.576-83.313 35.7-35.7 63.73-77.277 83.313-123.577 20.279-47.945 30.562-98.864 30.562-151.342s-10.282-103.397-30.562-151.342c-19.583-46.3-47.613-87.877-83.313-123.577-35.699-35.699-77.276-63.73-123.576-83.313-47.946-20.28-98.865-30.562-151.343-30.562z m0 737.588c-93.166 0-180.756-36.281-246.634-102.16-65.878-65.878-102.159-153.468-102.159-246.634 0-93.167 36.281-180.756 102.159-246.635 65.879-65.878 153.468-102.159 246.634-102.159s180.756 36.281 246.635 102.159c65.878 65.879 102.159 153.469 102.159 246.635s-36.281 180.756-102.159 246.634c-65.88 65.879-153.469 102.16-246.635 102.16zM609.2 57.165a393.296 393.296 0 0 0-43.459 2.424c-105.111 11.68-193.289 53.928-255 122.179-32.465 35.905-57.507 78.827-74.428 127.574-17.534 50.511-26.424 107.59-26.424 169.652 0 11.046 8.954 20 20 20s20-8.954 20-20c0-57.587 8.146-110.253 24.212-156.535 15.152-43.65 37.462-81.96 66.31-113.864 55.055-60.889 134.501-98.667 229.749-109.25 50.944-5.661 100.206-0.472 146.418 15.426 42.857 14.743 81.982 38.218 116.288 69.771 36.448 33.523 66.265 75.554 86.225 121.547 19.848 45.733 29.666 94.708 28.394 141.631-1.977 72.93-33.431 147.437-86.295 204.417-26.21 28.251-56.203 50.927-89.146 67.396-34.217 17.107-70.037 26.661-106.466 28.395-57.076 2.723-111.794-16.953-154.074-55.39-42.281-38.437-67.062-91.038-69.78-148.113-4.384-92.055 66.942-170.514 158.997-174.897 71.413-3.406 132.331 51.951 135.732 123.393 1.268 26.619-7.906 52.138-25.832 71.857s-42.458 31.276-69.076 32.543c-20.242 0.971-39.621-6.008-54.604-19.63-14.984-13.622-23.767-32.264-24.729-52.492-1.486-31.202 22.69-57.795 53.893-59.281 22.795-1.097 42.156 16.55 43.239 39.309 0.526 11.033 9.888 19.553 20.929 19.026 11.033-0.526 19.552-9.896 19.026-20.929-2.134-44.791-40.355-79.494-85.097-77.361-53.234 2.536-94.48 47.906-91.945 101.139 1.472 30.9 14.888 59.378 37.777 80.187 22.891 20.81 52.529 31.46 83.414 29.987 37.291-1.775 71.659-17.967 96.771-45.591 25.113-27.625 37.965-63.375 36.189-100.666-4.32-90.733-79.524-161.635-169.422-161.64-2.713 0-5.43 0.064-8.168 0.194-114.086 5.433-202.482 102.669-197.05 216.755 3.226 67.748 32.642 130.185 82.828 175.809 50.187 45.624 115.137 68.974 182.884 65.748 42.024-2.001 83.223-12.96 122.451-32.572 37.253-18.625 71.094-44.185 100.582-75.969 29.166-31.438 52.436-67.182 69.163-106.24 17.302-40.4 26.652-82.22 27.793-124.299 2.923-107.774-44.75-217.569-127.524-293.702-69.511-63.935-157.274-97.937-250.745-97.938zM80.627-53.863a19.936 19.936 0 0 0-14.142 5.857c-7.811 7.811-7.811 20.475 0 28.285l217.314 217.314c7.811 7.811 20.474 7.812 28.284 0.001s7.811-20.475 0-28.284L94.769-48.006a19.94 19.94 0 0 0-14.142-5.857zM814.403 273.01a19.909 19.909 0 0 0-11.685 3.782c-8.958 6.463-10.981 18.963-4.519 27.921a244.197 244.197 0 0 1 28.239 51.062c10.434 25.73 16.395 52.904 17.716 80.765 0.523 11.034 9.9 19.55 20.925 19.03 11.033-0.523 19.554-9.892 19.03-20.925-1.536-32.383-8.468-63.976-20.603-93.901a284.237 284.237 0 0 0-32.868-59.433c-3.908-5.419-10.028-8.301-16.235-8.301zM669.781 172.148c-8.769 0-16.812 5.81-19.265 14.672-2.944 10.646 3.298 21.664 13.943 24.609a245.135 245.135 0 0 1 37.159 13.599c10.034 4.626 21.912 0.24 26.536-9.79 4.624-10.031 0.241-21.912-9.79-26.536a285.357 285.357 0 0 0-43.239-15.825 20.033 20.033 0 0 0-5.344-0.729z"  horiz-adv-x="1024" />

    
    <glyph glyph-name="sousuo" unicode="&#58883;" d="M863.38 70.90999999999997L714.17 220.12c48.01 57.12 74.18 128.58 74.18 204.08 0 84.89-33.06 164.7-93.08 224.72C635.24 708.95 555.44 742 470.55 742c-84.89 0-164.7-33.06-224.72-93.08s-93.08-139.83-93.08-224.72 33.06-164.7 93.08-224.72 139.83-93.08 224.72-93.08c76.22 0 148.33 26.67 205.72 75.56l149.08-149.08a26.805 26.805 0 0 1 19.01-7.88c6.88 0 13.76 2.63 19.01 7.88a26.805 26.805 0 0 1 7.88 19.01c0 6.89-2.62 13.77-7.87 19.02zM206.53 424.2c0 145.58 118.44 264.02 264.02 264.02 145.58 0 264.02-118.44 264.02-264.02S616.13 160.17999999999995 470.55 160.17999999999995c-145.58 0-264.02 118.44-264.02 264.02z"  horiz-adv-x="1024" />

    
    <glyph glyph-name="meizhuang" unicode="&#58912;" d="M490.437033 414.08576v-429.452385a56.919005 56.919005 0 0 0-56.919005-56.919005H177.472855A56.919005 56.919005 0 0 0 120.493618-15.366625V414.08576h369.943415z m313.084642-162.625728c31.440974 0 56.919005-25.538262 56.919005-56.979237v-209.84742a56.919005 56.919005 0 0 0-56.919005-56.919005H639.872008a56.919005 56.919005 0 0 0-56.919005 56.919005v209.84742c0 31.440974 25.478031 56.919005 56.919005 56.919005h163.649667zM222.586436 895.939768c3.372978 0 6.745956-0.722781 9.998471-2.168343l74.506676-19.876478c57.822481-25.779189 113.657314-45.294277 124.559261-128.956179l-0.060232-169.733074h1.927416c31.440974 0 56.979237-25.538262 56.979237-56.979237L490.376801 474.317511H120.493618v43.969178c0 31.380742 25.478031 56.858773 56.919005 56.858773l12.106582 0.060232V849.681783c0 25.538262 14.817011 46.257985 33.067231 46.257985z"  horiz-adv-x="1024" />

    
    <glyph glyph-name="qiandao" unicode="&#58897;" d="M930.909091-11.636364H139.636364V779.636364h791.272727v-791.272728zM186.181818 34.909091h698.181818V733.090909H186.181818v-698.181818zM651.636364 849.454545h46.545454v-186.181818h-46.545454zM372.363636 849.454545h46.545455v-186.181818h-46.545455zM344.436364 323.490909l-20.945455 39.563636c79.127273 25.6 146.618182 58.181818 200.145455 97.745455h27.927272c58.181818-41.890909 123.345455-74.472727 200.145455-97.745455l-20.945455-39.563636c-25.6 9.309091-48.872727 18.618182-69.818181 27.927273v-32.581818H414.254545v32.581818l-69.818181-27.927273z m18.618181 111.709091l-37.236363 23.272727c27.927273 37.236364 48.872727 74.472727 60.509091 116.363637l41.890909-9.309091c-2.327273-9.309091-6.981818-18.618182-9.309091-27.927273h116.363636v-39.563636h-58.181818c6.981818-13.963636 11.636364-27.927273 16.290909-39.563637l-39.563636-13.963636c-4.654545 18.618182-11.636364 37.236364-18.618182 53.527273h-30.254545c-16.290909-23.272727-27.927273-44.218182-41.89091-62.836364z m318.836364-141.963636c-11.636364-34.909091-25.6-67.490909-39.563636-95.418182h93.090909v-41.890909h-395.636364V197.818182h256c16.290909 30.254545 30.254545 67.490909 44.218182 109.381818l41.890909-13.963636z m-218.763636-79.127273l-39.563637-9.309091c-9.309091 27.927273-20.945455 55.854545-34.909091 83.781818l39.563637 13.963637c11.636364-25.6 23.272727-55.854545 34.909091-88.436364z m72.145454 209.454545c-30.254545-23.272727-67.490909-46.545455-109.381818-67.490909h218.763636c-41.890909 20.945455-76.8 41.890909-109.381818 67.490909z m27.927273-204.8l-39.563636-9.309091c-6.981818 30.254545-18.618182 60.509091-30.254546 88.436364l41.890909 13.963636c9.309091-27.927273 18.618182-58.181818 27.927273-93.090909z m6.981818 237.381819l-37.236363 23.272727c20.945455 30.254545 37.236364 62.836364 46.545454 95.418182l41.890909-9.309091c-2.327273-9.309091-6.981818-18.618182-9.309091-27.927273H744.727273v-39.563636h-65.163637c9.309091-16.290909 16.290909-30.254545 20.945455-44.218182l-39.563636-16.290909c-6.981818 20.945455-16.290909 39.563636-25.6 58.181818h-37.236364c-9.309091-11.636364-18.618182-27.927273-27.927273-39.563636z"  horiz-adv-x="1024" />

    
    <glyph glyph-name="fenlei" unicode="&#58893;" d="M70.289 695.006a50.597 50.597 0 1 1 103.553 0 50.597 50.597 0 1 1-103.553 0zM122.066 436.112c-28.594 0-51.777-23.172-51.777-51.764 0-28.606 23.183-51.774 51.777-51.774 28.593 0 51.777 23.167 51.777 51.774-0.001 28.592-23.184 51.764-51.777 51.764zM122.066 125.465c-28.594 0-51.777-23.183-51.777-51.776 0-28.61 23.183-51.789 51.777-51.789 28.593 0 51.777 23.179 51.777 51.789-0.001 28.593-23.184 51.776-51.777 51.776zM251.506 99.575h698.98V47.8h-698.98v51.776zM251.506 410.235h698.98v-51.776h-698.98v51.776zM251.506 720.895h698.98v-51.777h-698.98v51.777z"  horiz-adv-x="1024" />

    
    <glyph glyph-name="yiyaoxiang" unicode="&#59299;" d="M891.94 629.5H791.72v47.97c0 62.38-58.94 113.13-131.38 113.13H363.85c-72.44 0-131.38-50.75-131.38-113.13v-47.97h-100.2c-35.94 0-65.17-29.24-65.17-65.16v-522.02c0-35.93 29.24-65.16 65.17-65.16h759.67c35.93 0 65.16 29.24 65.16 65.16V564.34c0 35.92-29.24 65.16-65.16 65.16z m-589.68 47.96c0 23.49 28.2 43.34 61.6 43.34h296.49c33.39 0 61.6-19.85 61.6-43.34v-47.97H302.26v47.97z m585.05-117.75V495H136.88v64.72h750.43zM136.88 46.94V425.21h750.43v-378.27H136.88zM604.87 281.95H547v57.87c0 19.27-15.62 34.89-34.89 34.89-19.27 0-34.89-15.62-34.89-34.89v-57.87h-57.88c-19.27 0-34.89-15.62-34.89-34.89s15.62-34.89 34.89-34.89h57.88v-57.87c0-19.27 15.62-34.89 34.89-34.89 19.27 0 34.89 15.62 34.89 34.89v57.87h57.87c19.27 0 34.89 15.62 34.89 34.89s-15.62 34.89-34.89 34.89z"  horiz-adv-x="1024" />

    
    <glyph glyph-name="fanhuidingbu" unicode="&#58899;" d="M836.80552109 834H187.51073926a48.87165058 48.87165058 0 0 1 0-97.74330029h648.66008496A48.87165058 48.87165058 0 0 1 836.80552109 834zM541.12750332 666.44005664a48.05561162 48.05561162 0 0 1-27.20128975 13.69131592 8.16038701 8.16038701 0 0 1-1.99476123 0h-8.7044124A5.89361308 5.89361308 0 0 1 501.32295019 679.85935898h-1.90409062a49.23433388 49.23433388 0 0 1-27.20128975-13.69131503L177.08357833 371.57807783a48.78097911 48.78097911 0 0 1 69.09127558-69.0006041L457.80088643 514.02216416v-531.15051357a48.87165058 48.87165058 0 1 1 97.74330029 0v531.33185566l211.62603252-211.62603252A48.78097911 48.78097911 0 0 1 836.17082422 371.57807783z"  horiz-adv-x="1024" />

    
    <glyph glyph-name="nvzhuang" unicode="&#58898;" d="M872.609684 31.79789500000004c-13.797053-6.790737-28.348632-7.275789-43.277473-4.257684a269.150316 269.150316 0 0 1-91.459369 2.425263c-31.420632-4.365474-60.254316-16.168421-89.303579-27.648-18.000842-7.168-36.432842-13.473684-55.026526-19.186527-8.407579-2.533053-17.569684-2.694737-26.408421-3.934315-2.694737-0.377263-5.281684-0.862316-7.976421-1.293474h-3.233684c-1.940211 0.485053-3.772632 1.239579-5.712843 1.293474a353.711158 353.711158 0 0 0-95.555368 16.437894c-38.750316 11.856842-77.392842 23.983158-116.304842 35.354948-18.108632 5.281684-36.648421 10.347789-55.781053 9.808842a99.866947 99.866947 0 0 1-31.582316-4.850527c-20.210526-7.545263-38.588632-4.473263-57.020631 4.365474a61.817263 61.817263 0 0 0-30.82779 78.309053c14.982737 38.265263 28.079158 67.745684 39.343158 88.441263a827.823158 827.823158 0 0 0 89.626948 134.197895A486.561684 486.561684 0 0 0 392.892632 434.122105a24.576 24.576 0 0 1 10.778947 19.725474c2.425263 26.138947-2.317474 51.577263-7.868632 76.853895-1.185684 5.551158-4.634947 10.725053-7.329684 15.898947L285.642105 747.250526a21.989053 21.989053 0 0 0 16.114527 31.744l77.069473 12.288c12.072421 1.940211 24.090947 3.826526 36.109474 5.820632 3.233684 0.538947 4.850526-0.808421 6.413474-3.449263 11.317895-20.156632 23.552-39.666526 39.612631-56.643369 13.473684-14.282105 28.402526-26.570105 47.427369-33.522526 22.366316-8.138105 43.115789-3.718737 62.517894 8.084211 22.528 13.689263 38.912 33.199158 53.248 54.433684 5.928421 8.892632 11.317895 18.216421 16.707369 27.486316 1.778526 3.179789 3.880421 4.096 7.383579 3.503157l78.686316-12.611368 24.144842-3.934316a31.474526 31.474526 0 0 0 22.905263-45.271579c-26.300632-51.954526-52.709053-103.909053-79.386948-155.755789-6.575158-12.611368-14.066526-24.791579-21.504-37.025684-9.485474-15.629474-13.473684-32.821895-16.330105-50.337685-1.940211-11.964632-1.994105-23.983158 1.024-35.84 2.748632-10.778947 7.653053-19.563789 18.917053-25.061052 48.666947-23.767579 88.171789-58.745263 122.987789-98.789053 41.175579-47.373474 72.596211-100.783158 99.220211-156.833684 5.497263-11.587368 12.126316-26.408421 19.941052-44.463158a72.218947 72.218947 0 0 0-26.51621-88.710737c-6.197895-4.096-12.988632-7.221895-19.671579-10.509474z"  horiz-adv-x="1024" />

    


  </font>
</defs>
</svg>
